<svg width="18" height="21" viewBox="0 0 18 21" fill="none" xmlns="http://www.w3.org/2000/svg">
<path fill-rule="evenodd" clip-rule="evenodd" d="M15.2308 11.7462C15.3692 12.577 15.5077 13.2693 15.7846 14.1L16.6154 16.4539L15.9231 17.4231H11.0769C11.0769 18.1154 10.8 18.8077 10.2462 19.3616C9.69231 19.9154 9 20.1924 8.30769 20.1924C7.61539 20.1924 6.78462 19.9154 6.36923 19.3616C5.81538 18.8077 5.53846 18.1154 5.53846 17.4231H0.692308L0 16.4539L0.830769 14.1C1.10769 12.9924 1.38462 11.8847 1.38462 10.777V7.73082C1.38462 6.76159 1.52308 5.79236 1.93846 4.96159C2.35385 3.99236 2.90769 3.30005 3.6 2.60774C4.29231 1.91543 5.12308 1.50005 6.09231 1.22312C6.78462 0.946201 7.61539 0.807739 8.30769 0.807739C8.03077 1.22312 7.75385 1.77697 7.47692 2.33082C7.2 2.33082 6.92308 2.33082 6.50769 2.60774C5.81538 2.7462 5.12308 3.16159 4.56923 3.71543C4.01539 4.13082 3.46154 4.82312 3.18462 5.51543C2.90769 6.20774 2.76923 6.90005 2.76923 7.73082V10.777C2.76923 12.0231 2.49231 13.2693 2.21538 14.5154L1.66154 16.0385H14.9538L14.4 14.5154C14.1577 13.7871 14.0206 12.9508 13.8974 12.1976L13.8462 11.8847C14.4 11.8847 14.8154 11.8847 15.2308 11.7462ZM8.30769 18.8077C8.58462 18.8077 9 18.6693 9.27692 18.3924C9.55385 18.1154 9.69231 17.8385 9.69231 17.4231H6.92308C6.92308 17.8385 7.06154 18.1154 7.33846 18.3924C7.61539 18.6693 8.03077 18.8077 8.30769 18.8077ZM18 4.96159C18 6.06325 17.5624 7.1198 16.7834 7.8988C16.0044 8.6778 14.9478 9.11543 13.8462 9.11543C12.7445 9.11543 11.6879 8.6778 10.9089 7.8988C10.1299 7.1198 9.69231 6.06325 9.69231 4.96159C9.69231 3.85992 10.1299 2.80337 10.9089 2.02437C11.6879 1.24538 12.7445 0.807739 13.8462 0.807739C14.9478 0.807739 16.0044 1.24538 16.7834 2.02437C17.5624 2.80337 18 3.85992 18 4.96159Z" fill="white"/>
</svg>
